<mxfile host="app.diagrams.net" modified="2022-09-06T12:20:33.668Z" agent="5.0 (Macintosh; Intel Mac OS X 10_15_7) AppleWebKit/537.36 (KHTML, like Gecko) Chrome/105.0.0.0 Safari/537.36" etag="67nxT0OGeBrqkn9pOLOl" version="20.2.8" type="github">
  <diagram id="M0UE9Iz5v4E9vm6Po623" name="第 1 页">
    <mxGraphModel dx="1234" dy="794" grid="1" gridSize="10" guides="1" tooltips="1" connect="1" arrows="1" fold="1" page="1" pageScale="1" pageWidth="827" pageHeight="1169" math="0" shadow="0">
      <root>
        <mxCell id="0" />
        <mxCell id="1" parent="0" />
        <mxCell id="JlLWiZ-W6fRwa7arMO1L-45" style="edgeStyle=orthogonalEdgeStyle;rounded=0;orthogonalLoop=1;jettySize=auto;html=1;entryX=0.5;entryY=1;entryDx=0;entryDy=0;" edge="1" parent="1" source="JlLWiZ-W6fRwa7arMO1L-10" target="JlLWiZ-W6fRwa7arMO1L-55">
          <mxGeometry relative="1" as="geometry">
            <mxPoint x="560" y="625" as="targetPoint" />
          </mxGeometry>
        </mxCell>
        <mxCell id="JlLWiZ-W6fRwa7arMO1L-49" value="" style="endArrow=classic;html=1;rounded=0;" edge="1" parent="1">
          <mxGeometry width="50" height="50" relative="1" as="geometry">
            <mxPoint x="625" y="450" as="sourcePoint" />
            <mxPoint x="1035" y="450" as="targetPoint" />
          </mxGeometry>
        </mxCell>
        <mxCell id="JlLWiZ-W6fRwa7arMO1L-50" value="&lt;span style=&quot;&quot;&gt;loaderIndex++&lt;/span&gt;" style="edgeLabel;html=1;align=center;verticalAlign=middle;resizable=0;points=[];labelBackgroundColor=none;fontStyle=1" vertex="1" connectable="0" parent="JlLWiZ-W6fRwa7arMO1L-49">
          <mxGeometry x="0.0488" y="-1" relative="1" as="geometry">
            <mxPoint y="-11" as="offset" />
          </mxGeometry>
        </mxCell>
        <mxCell id="JlLWiZ-W6fRwa7arMO1L-51" value="" style="endArrow=classic;html=1;rounded=0;" edge="1" parent="1">
          <mxGeometry width="50" height="50" relative="1" as="geometry">
            <mxPoint x="1050" y="740" as="sourcePoint" />
            <mxPoint x="627.5" y="740" as="targetPoint" />
            <Array as="points">
              <mxPoint x="855" y="740" />
            </Array>
          </mxGeometry>
        </mxCell>
        <mxCell id="JlLWiZ-W6fRwa7arMO1L-52" value="&lt;span style=&quot;&quot;&gt;loaderIndex--&lt;/span&gt;" style="edgeLabel;html=1;align=center;verticalAlign=middle;resizable=0;points=[];labelBackgroundColor=none;fontStyle=1" vertex="1" connectable="0" parent="JlLWiZ-W6fRwa7arMO1L-51">
          <mxGeometry x="0.0488" y="-1" relative="1" as="geometry">
            <mxPoint y="11" as="offset" />
          </mxGeometry>
        </mxCell>
        <mxCell id="JlLWiZ-W6fRwa7arMO1L-56" style="rounded=0;orthogonalLoop=1;jettySize=auto;html=1;entryX=0;entryY=0.5;entryDx=0;entryDy=0;fontColor=default;exitX=0.5;exitY=0;exitDx=0;exitDy=0;edgeStyle=orthogonalEdgeStyle;" edge="1" parent="1" source="JlLWiZ-W6fRwa7arMO1L-55" target="JlLWiZ-W6fRwa7arMO1L-8">
          <mxGeometry relative="1" as="geometry" />
        </mxCell>
        <mxCell id="JlLWiZ-W6fRwa7arMO1L-55" value="NormalModule.doBuild&lt;br&gt;runLoaders()" style="text;html=1;align=center;verticalAlign=middle;whiteSpace=wrap;rounded=0;labelBackgroundColor=none;" vertex="1" parent="1">
          <mxGeometry x="380" y="570" width="130" height="30" as="geometry" />
        </mxCell>
        <mxCell id="JlLWiZ-W6fRwa7arMO1L-2" value="" style="rounded=0;whiteSpace=wrap;html=1;fillColor=#f5f5f5;fontColor=#333333;strokeColor=#666666;" vertex="1" parent="1">
          <mxGeometry x="590" y="480" width="140" height="220" as="geometry" />
        </mxCell>
        <mxCell id="JlLWiZ-W6fRwa7arMO1L-6" value="loader-A" style="text;html=1;align=center;verticalAlign=middle;whiteSpace=wrap;rounded=0;" vertex="1" parent="1">
          <mxGeometry x="627.5" y="480" width="65" height="35" as="geometry" />
        </mxCell>
        <mxCell id="JlLWiZ-W6fRwa7arMO1L-8" value="pitch" style="text;html=1;strokeColor=#b85450;fillColor=#f8cecc;align=center;verticalAlign=middle;whiteSpace=wrap;rounded=0;" vertex="1" parent="1">
          <mxGeometry x="610" y="520" width="100" height="50" as="geometry" />
        </mxCell>
        <mxCell id="JlLWiZ-W6fRwa7arMO1L-10" value="normal" style="text;html=1;strokeColor=#6c8ebf;fillColor=#dae8fc;align=center;verticalAlign=middle;whiteSpace=wrap;rounded=0;" vertex="1" parent="1">
          <mxGeometry x="610" y="640" width="100" height="50" as="geometry" />
        </mxCell>
        <mxCell id="JlLWiZ-W6fRwa7arMO1L-23" value="" style="rounded=0;whiteSpace=wrap;html=1;fillColor=#f5f5f5;fontColor=#333333;strokeColor=#666666;" vertex="1" parent="1">
          <mxGeometry x="760" y="480" width="140" height="220" as="geometry" />
        </mxCell>
        <mxCell id="JlLWiZ-W6fRwa7arMO1L-24" value="loader-B" style="text;html=1;align=center;verticalAlign=middle;whiteSpace=wrap;rounded=0;" vertex="1" parent="1">
          <mxGeometry x="797.5" y="480" width="65" height="35" as="geometry" />
        </mxCell>
        <mxCell id="JlLWiZ-W6fRwa7arMO1L-25" value="pitch" style="text;html=1;strokeColor=#b85450;fillColor=#f8cecc;align=center;verticalAlign=middle;whiteSpace=wrap;rounded=0;" vertex="1" parent="1">
          <mxGeometry x="780" y="520" width="100" height="50" as="geometry" />
        </mxCell>
        <mxCell id="JlLWiZ-W6fRwa7arMO1L-26" value="normal" style="text;html=1;strokeColor=#6c8ebf;fillColor=#dae8fc;align=center;verticalAlign=middle;whiteSpace=wrap;rounded=0;" vertex="1" parent="1">
          <mxGeometry x="780" y="640" width="100" height="50" as="geometry" />
        </mxCell>
        <mxCell id="JlLWiZ-W6fRwa7arMO1L-28" value="" style="rounded=0;whiteSpace=wrap;html=1;fillColor=#f5f5f5;fontColor=#333333;strokeColor=#666666;" vertex="1" parent="1">
          <mxGeometry x="940" y="480" width="140" height="220" as="geometry" />
        </mxCell>
        <mxCell id="JlLWiZ-W6fRwa7arMO1L-29" value="loader-C" style="text;html=1;align=center;verticalAlign=middle;whiteSpace=wrap;rounded=0;" vertex="1" parent="1">
          <mxGeometry x="977.5" y="480" width="65" height="35" as="geometry" />
        </mxCell>
        <mxCell id="JlLWiZ-W6fRwa7arMO1L-30" value="pitch" style="text;html=1;strokeColor=#b85450;fillColor=#f8cecc;align=center;verticalAlign=middle;whiteSpace=wrap;rounded=0;" vertex="1" parent="1">
          <mxGeometry x="960" y="520" width="100" height="50" as="geometry" />
        </mxCell>
        <mxCell id="JlLWiZ-W6fRwa7arMO1L-31" value="normal" style="text;html=1;strokeColor=#6c8ebf;fillColor=#dae8fc;align=center;verticalAlign=middle;whiteSpace=wrap;rounded=0;" vertex="1" parent="1">
          <mxGeometry x="960" y="640" width="100" height="50" as="geometry" />
        </mxCell>
        <mxCell id="JlLWiZ-W6fRwa7arMO1L-38" style="edgeStyle=orthogonalEdgeStyle;rounded=0;orthogonalLoop=1;jettySize=auto;html=1;entryX=0;entryY=0.5;entryDx=0;entryDy=0;" edge="1" parent="1" source="JlLWiZ-W6fRwa7arMO1L-8" target="JlLWiZ-W6fRwa7arMO1L-25">
          <mxGeometry relative="1" as="geometry" />
        </mxCell>
        <mxCell id="JlLWiZ-W6fRwa7arMO1L-39" style="edgeStyle=orthogonalEdgeStyle;rounded=0;orthogonalLoop=1;jettySize=auto;html=1;entryX=0;entryY=0.5;entryDx=0;entryDy=0;" edge="1" parent="1" source="JlLWiZ-W6fRwa7arMO1L-25" target="JlLWiZ-W6fRwa7arMO1L-30">
          <mxGeometry relative="1" as="geometry" />
        </mxCell>
        <mxCell id="JlLWiZ-W6fRwa7arMO1L-43" style="edgeStyle=orthogonalEdgeStyle;rounded=0;orthogonalLoop=1;jettySize=auto;html=1;entryX=1;entryY=0.5;entryDx=0;entryDy=0;" edge="1" parent="1" source="JlLWiZ-W6fRwa7arMO1L-31" target="JlLWiZ-W6fRwa7arMO1L-26">
          <mxGeometry relative="1" as="geometry" />
        </mxCell>
        <mxCell id="JlLWiZ-W6fRwa7arMO1L-44" style="edgeStyle=orthogonalEdgeStyle;rounded=0;orthogonalLoop=1;jettySize=auto;html=1;entryX=1;entryY=0.5;entryDx=0;entryDy=0;" edge="1" parent="1" source="JlLWiZ-W6fRwa7arMO1L-26" target="JlLWiZ-W6fRwa7arMO1L-10">
          <mxGeometry relative="1" as="geometry" />
        </mxCell>
        <mxCell id="JlLWiZ-W6fRwa7arMO1L-42" style="edgeStyle=orthogonalEdgeStyle;rounded=0;orthogonalLoop=1;jettySize=auto;html=1;exitX=1;exitY=0.5;exitDx=0;exitDy=0;entryX=1;entryY=0.5;entryDx=0;entryDy=0;" edge="1" parent="1" source="JlLWiZ-W6fRwa7arMO1L-30" target="JlLWiZ-W6fRwa7arMO1L-31">
          <mxGeometry relative="1" as="geometry">
            <Array as="points">
              <mxPoint x="1060" y="540" />
              <mxPoint x="1190" y="540" />
              <mxPoint x="1190" y="665" />
            </Array>
          </mxGeometry>
        </mxCell>
        <mxCell id="JlLWiZ-W6fRwa7arMO1L-53" value="&lt;span style=&quot;color: rgb(153, 0, 0); font-family: Menlo, Monaco, Consolas, &amp;quot;Courier New&amp;quot;, monospace; font-size: 12px; font-weight: 700; background-color: rgb(248, 248, 248);&quot;&gt;processResource&lt;br&gt;&lt;/span&gt;&lt;span style=&quot;font-size: 12px; background-color: rgb(248, 249, 250);&quot;&gt;&lt;b&gt;读取文件: resourcePath&lt;/b&gt;&lt;/span&gt;&lt;span style=&quot;color: rgb(153, 0, 0); font-family: Menlo, Monaco, Consolas, &amp;quot;Courier New&amp;quot;, monospace; font-size: 12px; font-weight: 700; background-color: rgb(248, 248, 248);&quot;&gt;&lt;br&gt;&lt;/span&gt;" style="edgeLabel;html=1;align=center;verticalAlign=middle;resizable=0;points=[];" vertex="1" connectable="0" parent="JlLWiZ-W6fRwa7arMO1L-42">
          <mxGeometry x="0.078" y="1" relative="1" as="geometry">
            <mxPoint x="19" y="-10" as="offset" />
          </mxGeometry>
        </mxCell>
        <mxCell id="JlLWiZ-W6fRwa7arMO1L-67" style="edgeStyle=orthogonalEdgeStyle;rounded=0;orthogonalLoop=1;jettySize=auto;html=1;entryX=0.5;entryY=1;entryDx=0;entryDy=0;" edge="1" parent="1" source="JlLWiZ-W6fRwa7arMO1L-79" target="JlLWiZ-W6fRwa7arMO1L-75">
          <mxGeometry relative="1" as="geometry">
            <mxPoint x="580" y="995" as="targetPoint" />
          </mxGeometry>
        </mxCell>
        <mxCell id="JlLWiZ-W6fRwa7arMO1L-70" value="" style="endArrow=classic;html=1;rounded=0;" edge="1" parent="1">
          <mxGeometry width="50" height="50" relative="1" as="geometry">
            <mxPoint x="645" y="820" as="sourcePoint" />
            <mxPoint x="1055" y="820" as="targetPoint" />
          </mxGeometry>
        </mxCell>
        <mxCell id="JlLWiZ-W6fRwa7arMO1L-71" value="&lt;span style=&quot;&quot;&gt;loaderIndex++&lt;/span&gt;" style="edgeLabel;html=1;align=center;verticalAlign=middle;resizable=0;points=[];labelBackgroundColor=none;fontStyle=1" vertex="1" connectable="0" parent="JlLWiZ-W6fRwa7arMO1L-70">
          <mxGeometry x="0.0488" y="-1" relative="1" as="geometry">
            <mxPoint y="-11" as="offset" />
          </mxGeometry>
        </mxCell>
        <mxCell id="JlLWiZ-W6fRwa7arMO1L-72" value="" style="endArrow=classic;html=1;rounded=0;" edge="1" parent="1">
          <mxGeometry width="50" height="50" relative="1" as="geometry">
            <mxPoint x="1070" y="1110" as="sourcePoint" />
            <mxPoint x="647.5" y="1110" as="targetPoint" />
            <Array as="points">
              <mxPoint x="875" y="1110" />
            </Array>
          </mxGeometry>
        </mxCell>
        <mxCell id="JlLWiZ-W6fRwa7arMO1L-73" value="&lt;span style=&quot;&quot;&gt;loaderIndex--&lt;/span&gt;" style="edgeLabel;html=1;align=center;verticalAlign=middle;resizable=0;points=[];labelBackgroundColor=none;fontStyle=1" vertex="1" connectable="0" parent="JlLWiZ-W6fRwa7arMO1L-72">
          <mxGeometry x="0.0488" y="-1" relative="1" as="geometry">
            <mxPoint y="11" as="offset" />
          </mxGeometry>
        </mxCell>
        <mxCell id="JlLWiZ-W6fRwa7arMO1L-74" style="rounded=0;orthogonalLoop=1;jettySize=auto;html=1;entryX=0;entryY=0.5;entryDx=0;entryDy=0;fontColor=default;exitX=0.5;exitY=0;exitDx=0;exitDy=0;edgeStyle=orthogonalEdgeStyle;" edge="1" parent="1" source="JlLWiZ-W6fRwa7arMO1L-75" target="JlLWiZ-W6fRwa7arMO1L-78">
          <mxGeometry relative="1" as="geometry" />
        </mxCell>
        <mxCell id="JlLWiZ-W6fRwa7arMO1L-75" value="NormalModule.doBuild&lt;br&gt;runLoaders()" style="text;html=1;align=center;verticalAlign=middle;whiteSpace=wrap;rounded=0;labelBackgroundColor=none;" vertex="1" parent="1">
          <mxGeometry x="400" y="940" width="130" height="30" as="geometry" />
        </mxCell>
        <mxCell id="JlLWiZ-W6fRwa7arMO1L-76" value="" style="rounded=0;whiteSpace=wrap;html=1;fillColor=#f5f5f5;fontColor=#333333;strokeColor=#666666;" vertex="1" parent="1">
          <mxGeometry x="610" y="850" width="140" height="220" as="geometry" />
        </mxCell>
        <mxCell id="JlLWiZ-W6fRwa7arMO1L-77" value="loader-A" style="text;html=1;align=center;verticalAlign=middle;whiteSpace=wrap;rounded=0;" vertex="1" parent="1">
          <mxGeometry x="647.5" y="850" width="65" height="35" as="geometry" />
        </mxCell>
        <mxCell id="JlLWiZ-W6fRwa7arMO1L-78" value="pitch" style="text;html=1;strokeColor=#b85450;fillColor=#f8cecc;align=center;verticalAlign=middle;whiteSpace=wrap;rounded=0;" vertex="1" parent="1">
          <mxGeometry x="630" y="890" width="100" height="50" as="geometry" />
        </mxCell>
        <mxCell id="JlLWiZ-W6fRwa7arMO1L-79" value="normal" style="text;html=1;strokeColor=#6c8ebf;fillColor=#dae8fc;align=center;verticalAlign=middle;whiteSpace=wrap;rounded=0;" vertex="1" parent="1">
          <mxGeometry x="630" y="1010" width="100" height="50" as="geometry" />
        </mxCell>
        <mxCell id="JlLWiZ-W6fRwa7arMO1L-80" value="" style="rounded=0;whiteSpace=wrap;html=1;fillColor=#f5f5f5;fontColor=#333333;strokeColor=#666666;" vertex="1" parent="1">
          <mxGeometry x="780" y="850" width="140" height="220" as="geometry" />
        </mxCell>
        <mxCell id="JlLWiZ-W6fRwa7arMO1L-81" value="loader-B" style="text;html=1;align=center;verticalAlign=middle;whiteSpace=wrap;rounded=0;" vertex="1" parent="1">
          <mxGeometry x="817.5" y="850" width="65" height="35" as="geometry" />
        </mxCell>
        <mxCell id="JlLWiZ-W6fRwa7arMO1L-95" style="edgeStyle=orthogonalEdgeStyle;rounded=0;orthogonalLoop=1;jettySize=auto;html=1;entryX=0.5;entryY=0;entryDx=0;entryDy=0;fontColor=#67AB9F;" edge="1" parent="1" source="JlLWiZ-W6fRwa7arMO1L-82" target="JlLWiZ-W6fRwa7arMO1L-79">
          <mxGeometry relative="1" as="geometry">
            <Array as="points">
              <mxPoint x="840" y="970" />
              <mxPoint x="680" y="970" />
            </Array>
          </mxGeometry>
        </mxCell>
        <mxCell id="JlLWiZ-W6fRwa7arMO1L-97" value="当前pitch有返回值" style="edgeLabel;html=1;align=center;verticalAlign=middle;resizable=0;points=[];fontColor=#67AB9F;" vertex="1" connectable="0" parent="JlLWiZ-W6fRwa7arMO1L-95">
          <mxGeometry x="-0.2957" y="2" relative="1" as="geometry">
            <mxPoint as="offset" />
          </mxGeometry>
        </mxCell>
        <mxCell id="JlLWiZ-W6fRwa7arMO1L-82" value="pitch" style="text;html=1;strokeColor=#b85450;fillColor=#f8cecc;align=center;verticalAlign=middle;whiteSpace=wrap;rounded=0;" vertex="1" parent="1">
          <mxGeometry x="800" y="890" width="100" height="50" as="geometry" />
        </mxCell>
        <mxCell id="JlLWiZ-W6fRwa7arMO1L-83" value="normal" style="text;html=1;strokeColor=#6c8ebf;fillColor=#dae8fc;align=center;verticalAlign=middle;whiteSpace=wrap;rounded=0;" vertex="1" parent="1">
          <mxGeometry x="800" y="1010" width="100" height="50" as="geometry" />
        </mxCell>
        <mxCell id="JlLWiZ-W6fRwa7arMO1L-84" value="" style="rounded=0;whiteSpace=wrap;html=1;fillColor=#f5f5f5;fontColor=#333333;strokeColor=#666666;" vertex="1" parent="1">
          <mxGeometry x="960" y="850" width="140" height="220" as="geometry" />
        </mxCell>
        <mxCell id="JlLWiZ-W6fRwa7arMO1L-85" value="loader-C" style="text;html=1;align=center;verticalAlign=middle;whiteSpace=wrap;rounded=0;" vertex="1" parent="1">
          <mxGeometry x="997.5" y="850" width="65" height="35" as="geometry" />
        </mxCell>
        <mxCell id="JlLWiZ-W6fRwa7arMO1L-86" value="pitch" style="text;html=1;strokeColor=#b85450;fillColor=#f8cecc;align=center;verticalAlign=middle;whiteSpace=wrap;rounded=0;" vertex="1" parent="1">
          <mxGeometry x="980" y="890" width="100" height="50" as="geometry" />
        </mxCell>
        <mxCell id="JlLWiZ-W6fRwa7arMO1L-87" value="normal" style="text;html=1;strokeColor=#6c8ebf;fillColor=#dae8fc;align=center;verticalAlign=middle;whiteSpace=wrap;rounded=0;" vertex="1" parent="1">
          <mxGeometry x="980" y="1010" width="100" height="50" as="geometry" />
        </mxCell>
        <mxCell id="JlLWiZ-W6fRwa7arMO1L-89" style="edgeStyle=orthogonalEdgeStyle;rounded=0;orthogonalLoop=1;jettySize=auto;html=1;entryX=0;entryY=0.5;entryDx=0;entryDy=0;" edge="1" parent="1" source="JlLWiZ-W6fRwa7arMO1L-78" target="JlLWiZ-W6fRwa7arMO1L-82">
          <mxGeometry relative="1" as="geometry" />
        </mxCell>
        <mxCell id="JlLWiZ-W6fRwa7arMO1L-92" style="edgeStyle=orthogonalEdgeStyle;rounded=0;orthogonalLoop=1;jettySize=auto;html=1;entryX=1;entryY=0.5;entryDx=0;entryDy=0;" edge="1" parent="1" source="JlLWiZ-W6fRwa7arMO1L-83" target="JlLWiZ-W6fRwa7arMO1L-79">
          <mxGeometry relative="1" as="geometry" />
        </mxCell>
        <mxCell id="JlLWiZ-W6fRwa7arMO1L-98" value="" style="endArrow=none;html=1;rounded=0;fontColor=#67AB9F;dashed=1;strokeWidth=2;" edge="1" parent="1">
          <mxGeometry width="50" height="50" relative="1" as="geometry">
            <mxPoint x="370" y="780" as="sourcePoint" />
            <mxPoint x="1260" y="780" as="targetPoint" />
          </mxGeometry>
        </mxCell>
      </root>
    </mxGraphModel>
  </diagram>
</mxfile>
